<svg xmlns="http://www.w3.org/2000/svg" viewBox="0 0 512 512"><path fill="#5b5d6e" d="M185.379 406.069H326.62v70.621H185.379z"/><path fill="#464655" d="M185.379 406.069H326.62v26.483H185.379z"/><path d="M494.345 414.897H17.655C7.904 414.897 0 406.993 0 397.241V97.103c0-9.751 7.904-17.655 17.655-17.655h476.69c9.751 0 17.655 7.904 17.655 17.655v300.138c0 9.752-7.904 17.656-17.655 17.656z" fill="#707487"/><path fill="#5b5d6e" d="M61.793 79.448h388.414v35.31H61.793z"/><path d="M467.862 379.586H44.138a8.829 8.829 0 0 1-8.828-8.828V123.586a8.829 8.829 0 0 1 8.828-8.828h423.724a8.829 8.829 0 0 1 8.828 8.828v247.172a8.828 8.828 0 0 1-8.828 8.828z" fill="#fff"/><path d="M414.897 264.828H97.103c-9.751 0-17.655-7.904-17.655-17.655V61.793c0-9.751 7.904-17.655 17.655-17.655h317.793c9.751 0 17.655 7.904 17.655 17.655v185.379c.001 9.752-7.903 17.656-17.654 17.656z" fill="#ffc850"/><g fill="#ffdc64"><path d="M97.103 353.103H79.448a8.823 8.823 0 0 1-8.828-8.828 8.823 8.823 0 0 1 8.828-8.828h17.655a8.823 8.823 0 0 1 8.828 8.828 8.822 8.822 0 0 1-8.828 8.828zM97.103 317.793H79.448c-4.879 0-8.828-3.948-8.828-8.828s3.948-8.828 8.828-8.828h17.655c4.879 0 8.828 3.948 8.828 8.828s-3.948 8.828-8.828 8.828z"/></g><path d="M203.034 317.793h-70.621c-4.879 0-8.828-3.948-8.828-8.828s3.948-8.828 8.828-8.828h70.621c4.879 0 8.828 3.948 8.828 8.828s-3.948 8.828-8.828 8.828z" fill="#707487"/><path d="M238.345 353.103H132.414a8.823 8.823 0 0 1-8.828-8.828 8.823 8.823 0 0 1 8.828-8.828h105.931a8.823 8.823 0 0 1 8.828 8.828 8.824 8.824 0 0 1-8.828 8.828z" fill="#7f8499"/><g fill="#ffdc64"><path d="M291.31 353.103h-17.655a8.823 8.823 0 0 1-8.828-8.828 8.823 8.823 0 0 1 8.828-8.828h17.655a8.823 8.823 0 0 1 8.828 8.828 8.822 8.822 0 0 1-8.828 8.828zM291.31 317.793h-17.655c-4.879 0-8.828-3.948-8.828-8.828s3.948-8.828 8.828-8.828h17.655c4.879 0 8.828 3.948 8.828 8.828s-3.948 8.828-8.828 8.828z"/></g><path d="M397.241 317.793H326.62c-4.879 0-8.828-3.948-8.828-8.828s3.948-8.828 8.828-8.828h70.621c4.879 0 8.828 3.948 8.828 8.828s-3.948 8.828-8.828 8.828z" fill="#707487"/><path d="M432.552 353.103H326.621a8.823 8.823 0 0 1-8.828-8.828 8.823 8.823 0 0 1 8.828-8.828h105.931a8.823 8.823 0 0 1 8.828 8.828 8.824 8.824 0 0 1-8.828 8.828z" fill="#7f8499"/><path d="M310.066 26.483c-42.002 0-54.002 12.789-54.002 12.789s-12-12.789-54.002-12.789c-37.18 0-80.393 9.21-92.625 11.999-2.007.458-3.378 2.233-3.378 4.292V236.76c0 2.826 2.567 4.932 5.325 4.318 14.371-3.204 55.262-11.561 90.677-11.561 28.582 0 43.271 5.922 49.739 9.707a8.45 8.45 0 0 0 8.524 0c6.468-3.785 21.158-9.707 49.739-9.707 35.415 0 76.306 8.356 90.678 11.56 2.758.615 5.325-1.492 5.325-4.318V42.773c0-2.059-1.37-3.834-3.378-4.292-12.228-2.788-55.442-11.998-92.622-11.998z" fill="#e4eaf8"/><path d="M220.698 186.327c-.319 0-.647-.018-.974-.052-9.956-1.095-21.879-1.112-33.802-.362-4.828.156-9.06-3.388-9.362-8.258a8.832 8.832 0 0 1 8.258-9.362c12.931-.81 25.845-.767 36.836.431a8.825 8.825 0 0 1 7.81 9.741 8.827 8.827 0 0 1-8.766 7.862z" fill="#707487"/><g fill="#7f8499"><path d="M141.224 191.164c-4.242 0-7.982-3.06-8.698-7.38-.802-4.81 2.449-9.354 7.258-10.155 2.897-.483 5.897-.957 8.983-1.414 4.94-.655 9.319 2.63 10.026 7.439.715 4.828-2.621 9.311-7.439 10.026-2.983.439-5.879.897-8.672 1.362a8.326 8.326 0 0 1-1.458.122zM141.224 155.853c-4.242 0-7.982-3.06-8.698-7.38-.802-4.81 2.449-9.362 7.258-10.155 32.871-5.465 60.353-7.267 81.87-4.905a8.825 8.825 0 0 1 7.81 9.741c-.534 4.836-4.845 8.294-9.741 7.81-19.801-2.164-45.87-.405-77.043 4.767a8.263 8.263 0 0 1-1.456.122zM220.698 115.706c-.31 0-.629-.018-.948-.052-2.595-.276-5.37-.5-8.345-.655-4.871-.258-8.612-4.405-8.362-9.276.258-4.871 4.337-8.672 9.276-8.362 3.319.172 6.422.431 9.311.742 4.845.518 8.353 4.871 7.837 9.716-.484 4.526-4.312 7.887-8.769 7.887z"/></g><path d="M141.224 120.543a8.824 8.824 0 0 1-8.698-7.388c-.802-4.81 2.457-9.354 7.267-10.146 12.698-2.103 24.802-3.672 35.982-4.655 4.974-.414 9.138 3.164 9.569 8.018.431 4.862-3.164 9.146-8.018 9.569-10.733.948-22.397 2.457-34.655 4.483a8.374 8.374 0 0 1-1.447.119z" fill="#707487"/><path d="M141.224 85.233c-4.242 0-7.982-3.06-8.698-7.38-.802-4.81 2.449-9.362 7.258-10.155 32.871-5.457 60.353-7.267 81.87-4.905a8.825 8.825 0 0 1 7.81 9.741c-.534 4.836-4.845 8.31-9.741 7.81-19.801-2.164-45.87-.396-77.043 4.767a8.36 8.36 0 0 1-1.456.122z" fill="#7f8499"/><path d="M291.302 186.327a8.829 8.829 0 0 1-.948-17.603c11-1.198 23.923-1.233 36.828-.431 4.871.31 8.569 4.5 8.258 9.362-.31 4.871-4.552 8.431-9.362 8.258-11.887-.759-23.819-.733-33.811.362a8.68 8.68 0 0 1-.965.052z" fill="#707487"/><g fill="#7f8499"><path d="M370.776 191.164c-.483 0-.966-.034-1.457-.12a465.524 465.524 0 0 0-8.672-1.362c-4.819-.715-8.156-5.198-7.439-10.026.707-4.819 5.19-8.207 10.026-7.439 3.086.457 6.087.931 8.983 1.414 4.81.802 8.061 5.345 7.258 10.155-.716 4.318-4.458 7.378-8.699 7.378zM370.776 155.853c-.474 0-.966-.034-1.457-.12-31.138-5.173-57.146-6.94-77.052-4.767-4.759.491-9.198-2.974-9.732-7.819a8.829 8.829 0 0 1 7.819-9.732c21.535-2.354 49.026-.552 81.863 4.905 4.81.793 8.061 5.345 7.258 10.155-.716 4.318-4.458 7.378-8.699 7.378zM291.302 115.706c-4.457 0-8.285-3.362-8.767-7.887a8.825 8.825 0 0 1 7.837-9.716c2.905-.31 5.992-.569 9.311-.742 4.879-.319 9.017 3.491 9.276 8.362.25 4.871-3.491 9.017-8.362 9.276-2.974.156-5.75.38-8.345.655a8.53 8.53 0 0 1-.95.052z"/></g><path d="M370.776 120.543a8.31 8.31 0 0 1-1.449-.12c-12.258-2.026-23.914-3.534-34.646-4.483-4.853-.431-8.448-4.707-8.018-9.569.431-4.853 4.621-8.448 9.569-8.018 11.172.983 23.276 2.552 35.975 4.655 4.81.793 8.07 5.336 7.267 10.146a8.824 8.824 0 0 1-8.698 7.389z" fill="#707487"/><path d="M370.776 85.233c-.474 0-.966-.034-1.457-.12-31.138-5.164-57.146-6.931-77.052-4.767-4.759.509-9.198-2.974-9.732-7.819a8.829 8.829 0 0 1 7.819-9.732c21.535-2.354 49.026-.552 81.863 4.905 4.81.793 8.061 5.345 7.258 10.155-.716 4.318-4.458 7.378-8.699 7.378z" fill="#7f8499"/><path d="M370.759 485.517H141.241a8.823 8.823 0 0 1-8.828-8.828 8.823 8.823 0 0 1 8.828-8.828h229.517a8.823 8.823 0 0 1 8.828 8.828 8.822 8.822 0 0 1-8.827 8.828z" fill="#707487"/></svg>