<svg xmlns="http://www.w3.org/2000/svg" viewBox="0 0 512.001 512.001"><path d="M432.552 459.035H26.483C11.857 459.035 0 447.178 0 432.552V79.449c0-14.626 11.857-26.483 26.483-26.483h406.069c14.626 0 26.483 11.857 26.483 26.483v353.103c-.001 14.626-11.857 26.483-26.483 26.483z" fill="#e4eaf8"/><g fill="#ff5050"><path d="M105.931 114.759a8.823 8.823 0 0 0 8.828-8.828 8.823 8.823 0 0 0-8.828-8.828H52.966a8.823 8.823 0 0 0-8.828 8.828v88.276a8.823 8.823 0 0 0 8.828 8.828h52.966a8.823 8.823 0 0 0 8.828-8.828 8.823 8.823 0 0 0-8.828-8.828H61.793v-26.483h35.31a8.823 8.823 0 0 0 8.828-8.828 8.823 8.823 0 0 0-8.828-8.828h-35.31v-26.483h44.138zM208.552 99.035c-3.81-3.043-9.362-2.406-12.414 1.379l-28.414 35.518-28.414-35.518a8.833 8.833 0 0 0-12.414-1.379c-3.801 3.052-4.423 8.604-1.379 12.414l30.897 38.621-30.897 38.621c-3.043 3.81-2.422 9.362 1.379 12.414a8.844 8.844 0 0 0 12.413-1.379l28.414-35.517 28.414 35.517a8.813 8.813 0 0 0 6.905 3.31c1.931 0 3.88-.629 5.508-1.931 3.801-3.052 4.423-8.604 1.379-12.414l-30.897-38.621 30.897-38.621c3.045-3.811 2.424-9.362-1.377-12.414zM271.629 97.104h-13.603c-10.474 0-19.577 7.457-21.638 17.741l-15.525 77.63a8.827 8.827 0 0 0 17.31 3.466l3.878-19.388h45.555l3.878 19.388c.836 4.199 4.526 7.095 8.647 7.095a8.827 8.827 0 0 0 8.663-10.56l-15.526-77.63c-2.061-10.285-11.165-17.742-21.639-17.742zm-26.048 61.793l8.117-40.586a4.428 4.428 0 0 1 4.328-3.552h13.603a4.43 4.43 0 0 1 4.328 3.552l8.117 40.586h-38.493zM408.561 97.466c-3.785-1.138-7.801.396-9.913 3.69l-32.302 50.241-32.301-50.241c-2.121-3.285-6.138-4.828-9.913-3.69a8.822 8.822 0 0 0-6.336 8.466v88.276c0 4.879 3.948 8.828 8.828 8.828s8.828-3.948 8.828-8.828v-58.216l23.474 36.509c3.242 5.052 11.604 5.052 14.845 0l23.474-36.509v58.216a8.823 8.823 0 0 0 8.828 8.828 8.823 8.823 0 0 0 8.828-8.828v-88.276a8.83 8.83 0 0 0-6.34-8.466z"/><circle cx="70.621" cy="256" r="17.655"/><circle cx="70.621" cy="326.621" r="17.655"/><circle cx="70.621" cy="397.242" r="17.655"/></g><path d="M264.828 264.828H123.586a8.823 8.823 0 0 1-8.828-8.828 8.823 8.823 0 0 1 8.828-8.828h141.241a8.823 8.823 0 0 1 8.828 8.828 8.822 8.822 0 0 1-8.827 8.828z" fill="#707487"/><path d="M158.897 335.449h-35.31a8.823 8.823 0 0 1-8.828-8.828 8.823 8.823 0 0 1 8.828-8.828h35.31a8.823 8.823 0 0 1 8.828 8.828 8.824 8.824 0 0 1-8.828 8.828z" fill="#7f8499"/><path d="M211.862 406.069h-88.276a8.823 8.823 0 0 1-8.828-8.828 8.823 8.823 0 0 1 8.828-8.828h88.276a8.823 8.823 0 0 1 8.828 8.828 8.822 8.822 0 0 1-8.828 8.828z" fill="#707487"/><path d="M388.414 335.449H194.207a8.823 8.823 0 0 1-8.828-8.828 8.823 8.823 0 0 1 8.828-8.828h194.207a8.823 8.823 0 0 1 8.828 8.828 8.824 8.824 0 0 1-8.828 8.828z" fill="#7f8499"/><path d="M459.034 141.242l-197.991 197.99-22.635 48.505c-2.805 6.012 3.43 12.247 9.441 9.441l48.504-22.636 162.681-162.68v-70.62z" fill="#d5dced"/><path fill="#707487" d="M353.103 317.794h-70.62l-17.655 17.655h70.62z"/><path d="M229.565 388.981l42.868-20.004a35.294 35.294 0 0 0 10.036-7.029l226.946-226.946a8.828 8.828 0 0 0 0-12.484L486.588 99.69a8.828 8.828 0 0 0-12.484 0L247.157 326.635a35.294 35.294 0 0 0-7.029 10.036l-20.004 42.868c-2.806 6.013 3.428 12.247 9.441 9.442z" fill="#ffdc64"/><path d="M221.538 387.566c1.96 1.96 5.021 2.817 8.026 1.415l42.868-20.004a35.297 35.297 0 0 0 10.036-7.03L489.175 155.24l-17.655-17.655-249.982 249.981z" fill="#ffc850"/><path d="M291.31 353.104L256 317.794l-8.843 8.843a35.294 35.294 0 0 0-7.029 10.036l-20.004 42.867c-2.805 6.012 3.43 12.246 9.441 9.441l42.867-20.004a35.277 35.277 0 0 0 10.036-7.03l8.842-8.843z" fill="#faebc8"/><path d="M273.655 335.449l-52.117 52.117c1.96 1.96 5.021 2.817 8.026 1.415l42.868-20.004a35.277 35.277 0 0 0 10.036-7.03l8.842-8.842-17.655-17.656z" fill="#f5dcb4"/><path d="M486.589 99.689a8.826 8.826 0 0 0-12.484 0l-20.241 20.241 35.31 35.31L509.415 135a8.826 8.826 0 0 0 0-12.484l-22.826-22.827z" fill="#faebc8"/><path d="M509.415 122.515l-11.413-11.413-26.483 26.483 17.655 17.655L509.415 135a8.83 8.83 0 0 0 0-12.485z" fill="#f5dcb4"/></svg>