<svg xmlns="http://www.w3.org/2000/svg" viewBox="0 0 512 512"><path d="M494.345 512H17.655C7.904 512 0 504.096 0 494.345V220.69c0-9.751 7.904-17.655 17.655-17.655h476.69c9.751 0 17.655 7.904 17.655 17.655v273.655c0 9.751-7.904 17.655-17.655 17.655z" fill="#ffdc64"/><path d="M485.517 220.69H26.483a8.829 8.829 0 0 0-8.828 8.828v256a8.829 8.829 0 0 0 8.828 8.828H220.69a8.829 8.829 0 0 1 8.828 8.828 8.829 8.829 0 0 0 8.828 8.828h35.31a8.829 8.829 0 0 0 8.828-8.828 8.829 8.829 0 0 1 8.828-8.828h194.207a8.829 8.829 0 0 0 8.828-8.828v-256a8.831 8.831 0 0 0-8.83-8.828z" fill="#ffc850"/><path d="M467.862 476.69H44.138a8.829 8.829 0 0 1-8.828-8.828v-35.31h441.38v35.31a8.829 8.829 0 0 1-8.828 8.828z" fill="#afb9d2"/><path d="M335.448 167.724c-44.628 0-66.234 9.209-74.794 14.325a9.02 9.02 0 0 1-9.309 0c-8.559-5.116-30.166-14.325-74.794-14.325-52.797 0-113.862 11.844-134.229 16.13a8.82 8.82 0 0 0-7.012 8.639v247.185c0 5.585 5.079 9.779 10.549 8.657 23.22-4.762 80.668-15.396 130.692-15.396 44.628 0 66.234 9.209 74.794 14.325a9.124 9.124 0 0 0 9.309 0c8.559-5.117 30.165-14.325 74.794-14.325 50.025 0 107.473 10.634 130.692 15.396 5.471 1.122 10.549-3.072 10.549-8.657V192.494a8.82 8.82 0 0 0-7.012-8.639c-20.367-4.286-81.432-16.131-134.229-16.131z" fill="#e4eaf8"/><g fill="#707487"><path d="M220.698 259.789a8.86 8.86 0 0 1-1.698-.163c-5.25-1.026-10.922-1.845-16.845-2.435a8.829 8.829 0 0 1-7.905-9.664c.491-4.85 4.759-8.405 9.664-7.905 6.465.647 12.681 1.547 18.465 2.677a8.83 8.83 0 0 1 6.974 10.354c-.819 4.213-4.517 7.136-8.655 7.136zM79.439 229.906c-4.242 0-7.991-3.069-8.698-7.392-.793-4.81 2.457-9.354 7.267-10.146a850.665 850.665 0 0 1 26.767-3.982c4.853-.676 9.267 2.763 9.906 7.595a8.824 8.824 0 0 1-7.595 9.906 828.01 828.01 0 0 0-26.198 3.905 9.734 9.734 0 0 1-1.449.114zM79.439 300.526c-4.25 0-7.991-3.069-8.698-7.392a8.828 8.828 0 0 1 7.276-10.146c12.233-2.013 24.242-3.733 35.69-5.112 4.785-.543 9.233 2.867 9.818 7.706.577 4.841-2.871 9.237-7.715 9.818-11.19 1.35-22.94 3.034-34.931 5.009a9.039 9.039 0 0 1-1.44.117zM79.439 371.147c-4.242 0-7.991-3.064-8.698-7.388-.793-4.81 2.457-9.354 7.267-10.151a875.607 875.607 0 0 1 17.827-2.75c4.931-.707 9.302 2.659 10.001 7.478.69 4.828-2.655 9.302-7.482 9.996a844.217 844.217 0 0 0-17.465 2.698 9.38 9.38 0 0 1-1.45.117zM220.698 330.41a8.86 8.86 0 0 1-1.698-.163c-12.319-2.407-26.595-3.626-42.449-3.626-4.879 0-8.828-3.953-8.828-8.828s3.948-8.828 8.828-8.828c16.983 0 32.405 1.332 45.827 3.953 4.785.936 7.905 5.574 6.974 10.358-.818 4.211-4.516 7.134-8.654 7.134zM220.698 401.031a8.86 8.86 0 0 1-1.698-.163c-7.69-1.5-16.215-2.552-25.336-3.116a8.826 8.826 0 0 1-8.267-9.357c.31-4.862 4.577-8.625 9.354-8.263 9.888.612 19.19 1.759 27.629 3.41a8.83 8.83 0 0 1 6.974 10.354c-.82 4.212-4.518 7.135-8.656 7.135zM291.302 259.789c-4.138 0-7.837-2.922-8.655-7.138a8.83 8.83 0 0 1 6.974-10.354c5.784-1.129 12-2.03 18.465-2.677a8.79 8.79 0 0 1 9.664 7.905 8.83 8.83 0 0 1-7.905 9.664c-5.922.59-11.595 1.409-16.845 2.435a8.713 8.713 0 0 1-1.698.165zM432.561 229.906c-.474 0-.957-.039-1.449-.116a828.445 828.445 0 0 0-26.198-3.905 8.825 8.825 0 0 1-7.595-9.906c.638-4.828 5.043-8.263 9.906-7.595a855.687 855.687 0 0 1 26.767 3.982c4.81.793 8.061 5.336 7.267 10.146-.707 4.324-4.457 7.394-8.698 7.394zM432.561 300.526c-.474 0-.957-.039-1.44-.116-11.991-1.974-23.742-3.659-34.931-5.009a8.83 8.83 0 0 1-7.715-9.819c.586-4.841 5.069-8.263 9.818-7.706 11.448 1.379 23.457 3.1 35.69 5.112 4.81.793 8.07 5.336 7.276 10.146-.707 4.323-4.449 7.392-8.698 7.392zM432.561 371.147c-.474 0-.957-.039-1.449-.116a845.266 845.266 0 0 0-17.465-2.698c-4.828-.694-8.172-5.169-7.483-9.996.698-4.814 5.086-8.138 10.001-7.478a881.557 881.557 0 0 1 17.827 2.75 8.83 8.83 0 0 1 7.267 10.151c-.707 4.322-4.457 7.387-8.698 7.387zM291.302 330.41c-4.138 0-7.837-2.922-8.655-7.134-.931-4.785 2.189-9.422 6.974-10.358 13.423-2.621 28.845-3.953 45.828-3.953 4.879 0 8.828 3.953 8.828 8.828s-3.948 8.828-8.828 8.828c-15.853 0-30.13 1.219-42.449 3.625a8.79 8.79 0 0 1-1.698.164zM291.302 401.031c-4.138 0-7.837-2.922-8.655-7.138a8.83 8.83 0 0 1 6.974-10.354c8.439-1.651 17.741-2.797 27.629-3.41 4.905-.358 9.052 3.401 9.354 8.263a8.826 8.826 0 0 1-8.267 9.357c-9.121.565-17.646 1.617-25.336 3.116a8.656 8.656 0 0 1-1.699.166z"/></g><path d="M355.871 41.37C329.198 14.694 293.725 0 256 0s-73.198 14.694-99.871 41.37c-3.448 3.448-3.448 9.035 0 12.483s9.035 3.448 12.483 0c23.345-23.34 54.379-36.198 87.388-36.198s64.043 12.857 87.388 36.199c1.725 1.725 3.982 2.586 6.241 2.586s4.518-.862 6.241-2.586a8.825 8.825 0 0 0 .001-12.484z" fill="#c7cfe2"/><path d="M187.336 72.577a8.825 8.825 0 0 0 0 12.483 8.825 8.825 0 0 0 12.483 0c30.983-30.974 81.379-30.974 112.362 0a8.795 8.795 0 0 0 6.241 2.586 8.798 8.798 0 0 0 6.241-2.586 8.825 8.825 0 0 0 0-12.483c-37.861-37.861-99.465-37.861-137.327 0z" fill="#afb9d2"/><path d="M256 88.276c-14.146 0-27.448 5.508-37.449 15.513-3.448 3.448-3.448 9.038 0 12.483a8.825 8.825 0 0 0 12.483 0c13.345-13.336 36.586-13.336 49.931 0 1.725 1.725 3.982 2.586 6.241 2.586s4.518-.862 6.241-2.586c3.448-3.444 3.448-9.035 0-12.483-9.999-10.005-23.301-15.513-37.447-15.513z" fill="#959cb5"/><g fill="#7f8499"><path d="M256 128c-7.302 0-13.241 5.94-13.241 13.241 0 7.302 5.94 13.241 13.241 13.241 7.302 0 13.241-5.94 13.241-13.241S263.302 128 256 128zM79.439 265.216c-4.25 0-7.991-3.069-8.698-7.392-.793-4.81 2.457-9.354 7.267-10.146 33.457-5.513 63.569-8.617 89.508-9.224.07-.004.138-.004.207-.004 4.785 0 8.715 3.819 8.828 8.621a8.83 8.83 0 0 1-8.621 9.031c-24.767.582-54.862 3.694-87.043 9a9.71 9.71 0 0 1-1.448.114zM220.698 224.479a8.86 8.86 0 0 1-1.698-.163c-20.561-4.022-46.216-4.586-77.069-2.155-4.785.345-9.112-3.245-9.492-8.108s3.25-9.112 8.113-9.495c32.526-2.56 59.663-1.901 81.827 2.431 4.785.936 7.905 5.574 6.974 10.358-.819 4.209-4.517 7.132-8.655 7.132zM220.698 295.1a8.86 8.86 0 0 1-1.698-.163c-18.612-3.642-41.431-4.452-68.38-2.767-5.043.301-9.06-3.401-9.362-8.258-.301-4.866 3.396-9.06 8.258-9.362 28.535-1.768 52.759-.866 72.862 3.06 4.785.936 7.905 5.574 6.974 10.358-.818 4.209-4.516 7.132-8.654 7.132zM220.698 365.72a8.86 8.86 0 0 1-1.698-.163c-22.457-4.384-50.983-4.668-85.759-1.405-4.966.461-9.164-3.112-9.621-7.966-.448-4.853 3.112-9.155 7.966-9.612 36.561-3.435 66.621-3.064 90.793 1.655 4.785.936 7.905 5.574 6.974 10.358-.819 4.21-4.517 7.133-8.655 7.133zM79.439 335.837c-4.25 0-7.991-3.069-8.698-7.392-.793-4.81 2.457-9.354 7.267-10.146 22.259-3.668 43.302-6.293 62.552-7.81 4.845-.375 9.112 3.245 9.492 8.108s-3.25 9.112-8.113 9.495c-18.75 1.474-39.293 4.043-61.052 7.629a9.457 9.457 0 0 1-1.448.116zM79.439 406.457c-4.25 0-7.991-3.069-8.698-7.392a8.822 8.822 0 0 1 7.276-10.146c29.56-4.871 56.647-7.871 80.491-8.918 4.828-.047 9 3.564 9.207 8.431.215 4.871-3.561 8.991-8.431 9.207-23.147 1.017-49.526 3.944-78.406 8.703a9.25 9.25 0 0 1-1.439.115zM432.561 265.216c-.474 0-.957-.039-1.449-.116-32.181-5.306-62.276-8.418-87.043-9-4.871-.113-8.733-4.156-8.621-9.031.113-4.871 4.018-8.9 9.035-8.617 25.94.608 56.052 3.711 89.508 9.224 4.81.793 8.061 5.336 7.267 10.146-.706 4.324-4.456 7.394-8.697 7.394zM291.302 224.479c-4.138 0-7.837-2.922-8.655-7.134-.931-4.785 2.189-9.422 6.974-10.358 22.164-4.323 49.311-4.983 81.827-2.431a8.835 8.835 0 0 1 8.113 9.495c-.378 4.862-4.707 8.457-9.492 8.108-30.871-2.431-56.518-1.866-77.069 2.155a8.713 8.713 0 0 1-1.698.165zM291.302 295.1c-4.138 0-7.837-2.922-8.655-7.134-.931-4.785 2.189-9.422 6.974-10.358 20.104-3.927 44.337-4.828 72.862-3.06 4.862.301 8.561 4.495 8.259 9.362-.31 4.866-4.586 8.547-9.363 8.258-26.957-1.685-49.775-.875-68.38 2.767a8.696 8.696 0 0 1-1.697.165zM291.302 365.72c-4.138 0-7.837-2.922-8.655-7.134-.931-4.785 2.189-9.422 6.974-10.358 24.172-4.712 54.232-5.081 90.793-1.655 4.853.457 8.414 4.759 7.966 9.612-.457 4.853-4.664 8.418-9.621 7.966-34.767-3.258-63.293-2.978-85.759 1.405a8.79 8.79 0 0 1-1.698.164zM432.561 335.837c-.474 0-.957-.039-1.449-.116-21.759-3.586-42.302-6.155-61.052-7.629-4.862-.384-8.491-4.633-8.113-9.495s4.742-8.479 9.492-8.108c19.25 1.517 40.294 4.142 62.552 7.81 4.81.793 8.061 5.336 7.267 10.146-.706 4.322-4.456 7.392-8.697 7.392zM432.561 406.457c-.474 0-.957-.039-1.44-.116-28.879-4.759-55.258-7.686-78.405-8.703-4.871-.215-8.647-4.337-8.431-9.207.215-4.866 4.285-8.466 9.207-8.431 23.844 1.047 50.931 4.047 80.491 8.918a8.822 8.822 0 0 1 7.276 10.146c-.707 4.324-4.449 7.393-8.698 7.393z"/></g></svg>