<svg xmlns="http://www.w3.org/2000/svg" viewBox="0 0 511.999 511.999"><path fill="#464655" d="M386.598 328.454L338.043 279.9l12.483-12.483 48.554 48.555z"/><circle cx="264.828" cy="194.206" r="123.586" fill="#959cb5"/><circle cx="264.828" cy="194.206" r="97.103" fill="#baefff"/><g fill="#959cb5"><path d="M123.586 132.413H8.828A8.826 8.826 0 0 1 0 123.585a8.826 8.826 0 0 1 8.828-8.828h114.759a8.826 8.826 0 0 1 8.828 8.828 8.827 8.827 0 0 1-8.829 8.828zM26.483 167.723H8.828A8.826 8.826 0 0 1 0 158.895a8.826 8.826 0 0 1 8.828-8.828h17.655a8.826 8.826 0 0 1 8.828 8.828 8.826 8.826 0 0 1-8.828 8.828z"/></g><path d="M114.759 167.723H61.793a8.826 8.826 0 0 1-8.828-8.828 8.826 8.826 0 0 1 8.828-8.828h52.966a8.826 8.826 0 0 1 8.828 8.828 8.826 8.826 0 0 1-8.828 8.828z" fill="#707487"/><path d="M105.931 203.033H8.828A8.826 8.826 0 0 1 0 194.205a8.826 8.826 0 0 1 8.828-8.828h97.103a8.826 8.826 0 0 1 8.828 8.828 8.826 8.826 0 0 1-8.828 8.828z" fill="#959cb5"/><path d="M61.793 238.344H8.828c-4.879 0-8.828-3.953-8.828-8.828s3.948-8.828 8.828-8.828h52.966c4.879 0 8.828 3.953 8.828 8.828s-3.949 8.828-8.829 8.828z" fill="#707487"/><path d="M114.759 238.344H97.103c-4.879 0-8.828-3.953-8.828-8.828s3.948-8.828 8.828-8.828h17.655c4.879 0 8.828 3.953 8.828 8.828s-3.948 8.828-8.827 8.828z" fill="#959cb5"/><path d="M123.586 273.654H61.793c-4.879 0-8.828-3.953-8.828-8.828s3.948-8.828 8.828-8.828h61.793c4.879 0 8.828 3.953 8.828 8.828s-3.948 8.828-8.828 8.828z" fill="#707487"/><path d="M26.483 273.654H8.828c-4.879 0-8.828-3.953-8.828-8.828s3.948-8.828 8.828-8.828h17.655c4.879 0 8.828 3.953 8.828 8.828s-3.949 8.828-8.828 8.828z" fill="#959cb5"/><path d="M320.8 250.472c-2.862 2.841-7.773.725-7.546-3.302.082-1.46.126-2.931.126-4.413 0-53.629-43.475-97.103-97.103-97.103-1.482 0-2.953.044-4.413.126-4.026.225-6.141-4.685-3.3-7.546 15.008-15.119 36.014-24.259 59.196-23.422 41.349 1.493 74.966 35.107 76.465 76.457.838 23.182-8.303 44.193-23.425 59.203z" fill="#d4f5ff"/><path d="M291.31 238.344h-8.828a8.82 8.82 0 0 1-8.371-6.035l-9.284-27.844-9.284 27.844a8.817 8.817 0 0 1-8.371 6.035h-8.828a8.836 8.836 0 0 1-8.491-6.401l-17.655-61.793a8.832 8.832 0 0 1 6.069-10.914c4.655-1.336 9.569 1.37 10.914 6.06l13.888 48.617 13.388-40.156c1.197-3.603 4.568-6.034 8.37-6.034s7.172 2.431 8.371 6.035l13.388 40.156 13.888-48.617c1.345-4.69 6.276-7.401 10.914-6.06a8.833 8.833 0 0 1 6.069 10.914l-17.655 61.793a8.836 8.836 0 0 1-8.492 6.4z" fill="#464655"/><path d="M469.38 436.208l-89.791-89.791c-6.894-6.894-6.894-18.073 0-24.968l12.48-12.48c6.894-6.894 18.073-6.894 24.968 0l89.791 89.791c6.894 6.894 6.894 18.073 0 24.968l-12.48 12.48c-6.894 6.894-18.072 6.894-24.968 0z" fill="#707487"/><g fill="#5b5d6e"><path d="M484.452 421.136l-89.791-89.791c-6.451-6.451-6.784-16.607-1.165-23.541-.477.387-.983.721-1.427 1.165l-12.48 12.48c-6.894 6.895-6.894 18.073 0 24.968l89.791 89.791c6.895 6.895 18.073 6.895 24.968 0l12.48-12.48c.444-.444.779-.949 1.165-1.426-6.933 5.619-17.09 5.284-23.541-1.166zM311.388 159.237c-4.638-1.341-9.569 1.37-10.914 6.06l-5.806 20.324a96.75 96.75 0 0 1 12.07 22.045l10.719-37.516a8.832 8.832 0 0 0-6.069-10.913z"/></g></svg>