<svg xmlns="http://www.w3.org/2000/svg" viewBox="0 0 512 512"><path d="M118.29 220.69v40.768c0 6.2-4.044 11.676-9.971 13.5l-61.896 19.044a28.25 28.25 0 0 0-19.94 26.999v102.723c0 19.501 15.809 35.31 35.31 35.31h203.034V220.69H118.29z" fill="#d29b6e"/><path d="M167.724 326.621c-34.178 0-64.311-17.941-81.629-44.825l-39.672 12.207a28.248 28.248 0 0 0-19.94 26.998v102.723c0 19.501 15.809 35.31 35.31 35.31h203.034V229.517c.001 53.407-43.696 97.104-97.103 97.104z" fill="#59d8ff"/><g fill="#00c3f0"><path d="M264.828 229.517c0 53.407-43.697 97.103-97.103 97.103-34.178 0-64.311-17.941-81.629-44.825l-17.483 5.379c19.891 34.113 56.776 57.101 99.112 57.101 40.951 0 76.794-21.517 97.103-53.795v-60.963zM176.552 414.897H88.276a8.829 8.829 0 0 1-8.828-8.828v-41.996c0-7.023-2.791-13.76-7.756-18.727l-40.238-40.238c-3.129 4.583-4.971 10.06-4.971 15.893v102.723c0 19.501 15.809 35.31 35.31 35.31H203.034v-17.655c0-14.626-11.856-26.482-26.482-26.482z"/></g><path d="M242.759 158.897h-1.31l-3.104-61.793H98.207v61.793H92.69c-7.313 0-13.241 5.929-13.241 13.241v17.655c0 7.313 5.929 13.241 13.241 13.241h8.369l1.434 8.963a28.252 28.252 0 0 0 9.81 17.238l28.344 23.62a21.19 21.19 0 0 0 13.564 4.91h27.029c4.956 0 9.756-1.738 13.564-4.91l28.344-23.62a28.252 28.252 0 0 0 9.81-17.238l1.434-8.963h8.367c7.313 0 13.241-5.929 13.241-13.241v-17.655c0-7.313-5.929-13.241-13.241-13.241z" fill="#f0c087"/><path d="M238.345 97.103H98.207v61.793H92.69c-7.313 0-13.241 5.929-13.241 13.241v17.655c0 7.313 5.929 13.241 13.241 13.241h8.369l1.434 8.962a28.25 28.25 0 0 0 9.81 17.238l28.344 23.62a21.19 21.19 0 0 0 13.562 4.91h11.161l-12.584-37.75a52.961 52.961 0 0 1-2.718-16.748v-53.198a8.829 8.829 0 0 1 8.828-8.828s8.828 0 12.359-4.242a38.736 38.736 0 0 0 17.655 4.242 38.736 38.736 0 0 0 17.655-4.242 38.736 38.736 0 0 0 17.655 4.242c.888 0 1.754-.06 2.614-.158l13.72.017-2.209-43.995z" fill="#e6af78"/><path d="M273.655 95.338c0-9.781-6.665-17.932-15.676-20.37.98-2.439 1.551-5.088 1.551-7.879 0-11.701-9.485-21.186-21.186-21.186-.431 0-.833.102-1.258.127-2.883-8.276-10.67-14.251-19.928-14.251-2.274 0-4.43.424-6.47 1.111-4.522-4.985-10.987-8.173-18.248-8.173-1.873 0-3.679.248-5.432.642-5.054-4.745-11.806-7.704-19.285-7.704s-14.231 2.959-19.285 7.704c-1.753-.394-3.561-.642-5.432-.642-6.739 0-12.834 2.713-17.293 7.087-.122-.002-.238-.025-.362-.025-9.258 0-17.045 5.976-19.928 14.251-.425-.025-.828-.127-1.258-.127-11.701 0-21.186 9.485-21.186 21.186 0 2.79.572 5.439 1.55 7.879-9.01 2.438-15.674 10.589-15.674 20.37 0 5.451 2.116 10.369 5.498 14.124-3.382 3.754-5.498 8.673-5.498 14.124 0 7.841 4.311 14.593 10.652 18.238.314 9.474 8.045 17.073 17.597 17.073h7.718a7.063 7.063 0 0 0 6.966-5.901l4.928-29.568c.53.04 1.035.159 1.575.159 7.379 0 13.862-3.78 17.655-9.502 3.794 5.721 10.276 9.502 17.655 9.502 7.379 0 13.862-3.78 17.655-9.502 3.794 5.721 10.276 9.502 17.655 9.502s13.862-3.78 17.655-9.502c3.794 5.721 10.276 9.502 17.655 9.502.538 0 1.045-.119 1.575-.159l4.928 29.568a7.063 7.063 0 0 0 6.966 5.901h9.483c9.75 0 17.655-7.905 17.655-17.655 0-.183-.049-.353-.054-.535 5.359-3.823 8.882-10.029 8.882-17.12 0-5.451-2.116-10.37-5.499-14.124 3.382-3.756 5.498-8.674 5.498-14.125z" fill="#694b4b"/><path d="M162.554 108.204c-8.276-2.883-14.251-10.67-14.251-19.928 0-5.451 2.116-10.37 5.498-14.124-3.382-3.754-5.498-8.673-5.498-14.124 0-9.781 6.665-17.932 15.676-20.37-.98-2.439-1.55-5.088-1.55-7.879 0-5.442 2.111-10.354 5.483-14.105-.064 0-.122-.019-.186-.019-7.479 0-14.231 2.959-19.285 7.704-1.753-.394-3.561-.642-5.432-.642-6.739 0-12.834 2.713-17.293 7.087-.122-.002-.238-.025-.362-.025-9.258 0-17.045 5.976-19.928 14.251-.425-.025-.828-.127-1.258-.127-11.701 0-21.186 9.485-21.186 21.186 0 2.79.572 5.439 1.55 7.879-9.011 2.438-15.676 10.589-15.676 20.37 0 5.451 2.116 10.369 5.498 14.124-3.382 3.754-5.498 8.673-5.498 14.124 0 7.841 4.311 14.593 10.652 18.238.314 9.474 8.045 17.073 17.597 17.073h7.718a7.063 7.063 0 0 0 6.966-5.901l4.928-29.568c.53.04 1.035.159 1.575.159 7.379 0 13.862-3.78 17.655-9.502 3.794 5.721 10.276 9.502 17.655 9.502 4.873 0 9.267-1.761 12.843-4.53-2.419-2.519-4.015-5.82-4.015-9.594-.002-.432.086-.838.124-1.259z" fill="#5a4146"/><path d="M150.069 414.897h26.483c14.626 0 26.483 11.857 26.483 26.483v17.655h-52.966v-44.138z" fill="#e6af78"/><path d="M485.517 397.241H220.69c-14.626 0-26.483-11.857-26.483-26.483V211.862c0-14.626 11.857-26.483 26.483-26.483h264.828c14.626 0 26.483 11.857 26.483 26.483v158.897c-.001 14.626-11.858 26.482-26.484 26.482z" fill="#d5dced"/><path d="M406.069 459.034l-15.613-117.092c-1.17-8.771-8.651-15.321-17.501-15.321H333.25c-8.849 0-16.331 6.55-17.501 15.321l-15.612 117.092v17.655h105.931v-17.655z" fill="#afb9d2"/><circle cx="353.103" cy="273.655" r="17.655" fill="#fff"/><path d="M503.172 494.345H8.828A8.829 8.829 0 0 1 0 485.517v-17.655a8.829 8.829 0 0 1 8.828-8.828h494.345a8.829 8.829 0 0 1 8.828 8.828v17.655a8.83 8.83 0 0 1-8.829 8.828z" fill="#f5dcb4"/></svg>