<svg xmlns="http://www.w3.org/2000/svg" viewBox="0 0 512 512"><path d="M432.552 441.379H150.069c-14.626 0-26.483-11.857-26.483-26.483V26.483C123.586 11.857 135.443 0 150.069 0h282.483c14.626 0 26.483 11.857 26.483 26.483v388.414c-.001 14.626-11.857 26.482-26.483 26.482z" fill="#c7cfe2"/><path d="M432.552 264.828H150.069a8.829 8.829 0 0 1-8.828-8.828V26.483a8.829 8.829 0 0 1 8.828-8.828h282.483a8.829 8.829 0 0 1 8.828 8.828V256a8.83 8.83 0 0 1-8.828 8.828z" fill="#00c3ff"/><path d="M397.241 476.69H114.759c-14.626 0-26.483-11.857-26.483-26.483V61.793c0-14.626 11.857-26.483 26.483-26.483h282.483c14.626 0 26.483 11.857 26.483 26.483v388.414c-.001 14.626-11.857 26.483-26.484 26.483z" fill="#d5dced"/><path d="M397.241 300.138H114.759a8.829 8.829 0 0 1-8.828-8.828V61.793a8.829 8.829 0 0 1 8.828-8.828h282.483a8.829 8.829 0 0 1 8.828 8.828V291.31a8.83 8.83 0 0 1-8.829 8.828z" fill="#7df5a5"/><path d="M361.931 512H79.448c-14.626 0-26.483-11.857-26.483-26.483V97.103c0-14.626 11.857-26.483 26.483-26.483h282.483c14.626 0 26.483 11.857 26.483 26.483v388.414c0 14.626-11.857 26.483-26.483 26.483z" fill="#e4eaf8"/><path d="M361.931 335.448H79.448a8.829 8.829 0 0 1-8.828-8.828V97.103a8.829 8.829 0 0 1 8.828-8.828h282.483a8.829 8.829 0 0 1 8.828 8.828V326.62a8.828 8.828 0 0 1-8.828 8.828z" fill="#ffc850"/><g fill="#fff"><path d="M199.604 133.556c-3.448-12.366-14.811-21.004-27.647-21.004h-8.466c-12.836 0-24.199 8.638-27.647 21.013L95.302 279.526c-1.63 5.879 1.802 11.957 7.672 13.587 5.854 1.638 11.957-1.793 13.587-7.672l10.016-36.061h82.296l10.016 36.061c1.354 4.879 5.793 8.077 10.621 8.077.983 0 1.974-.129 2.966-.405 5.87-1.63 9.302-7.706 7.672-13.587l-40.544-145.97zm-66.897 93.754l24.396-87.832a6.648 6.648 0 0 1 6.388-4.857h8.466a6.651 6.651 0 0 1 6.388 4.85l24.397 87.84h-70.035zM337.655 271.672v-77.465c0-6.094-4.94-11.034-11.034-11.034-4.821 0-8.806 3.135-10.31 7.442-7.228-4.661-15.782-7.442-25.001-7.442-25.551 0-46.345 20.793-46.345 46.345v17.655c0 25.551 20.793 46.345 46.345 46.345 10.301 0 19.733-3.493 27.437-9.202 3.533 5.515 9.682 9.202 16.701 9.202 6.094 0 11.034-4.94 11.034-11.034.001-5.338-3.792-9.794-8.827-10.812zm-46.345-.224c-13.388 0-24.276-10.888-24.276-24.276v-17.655c0-13.388 10.888-24.276 24.276-24.276s24.276 10.888 24.276 24.276v17.655c0 13.389-10.888 24.276-24.276 24.276z"/></g><g fill="#7f8499"><path d="M335.448 397.241H105.931c-4.879 0-8.828-3.948-8.828-8.828s3.948-8.828 8.828-8.828h229.517c4.879 0 8.828 3.948 8.828 8.828s-3.948 8.828-8.828 8.828zM247.172 467.862H105.931c-4.879 0-8.828-3.948-8.828-8.828s3.948-8.828 8.828-8.828h141.241c4.879 0 8.828 3.948 8.828 8.828s-3.948 8.828-8.828 8.828z"/></g><g fill="#707487"><path d="M158.897 432.552h-52.966a8.823 8.823 0 0 1-8.828-8.828 8.823 8.823 0 0 1 8.828-8.828h52.966a8.823 8.823 0 0 1 8.828 8.828 8.824 8.824 0 0 1-8.828 8.828zM335.448 432.552H194.207a8.823 8.823 0 0 1-8.828-8.828 8.823 8.823 0 0 1 8.828-8.828h141.241a8.823 8.823 0 0 1 8.828 8.828 8.822 8.822 0 0 1-8.828 8.828z"/></g></svg>